<svg class="lnXdpd" height="92" viewBox="0 0 272 92" width="272" xmlns="http://www.w3.org/2000/svg"
    xmlns:bx="https://boxy-svg.com">
    <path
        d="M115.75 47.18c0 12.77-9.99 22.18-22.25 22.18s-22.25-9.41-22.25-22.18C71.25 34.32 81.24 25 93.5 25s22.25 9.32 22.25 22.18zm-9.74 0c0-7.98-5.79-13.44-12.51-13.44S80.99 39.2 80.99 47.18c0 7.9 5.79 13.44 12.51 13.44s12.51-5.55 12.51-13.44z"
        fill="#EA4335" />
    <path
        d="M 163.75 47.18 C 163.75 59.95 153.76 69.36 141.5 69.36 C 129.24 69.36 119.25 59.95 119.25 47.18 C 119.25 34.33 129.24 25 141.5 25 C 153.76 25 163.75 34.32 163.75 47.18 Z M 154.01 47.18 C 154.01 39.2 148.22 33.74 141.5 33.74 C 134.78 33.74 128.99 39.2 128.99 47.18 C 128.99 55.08 134.78 60.62 141.5 60.62 C 148.22 60.62 154.01 55.07 154.01 47.18 Z"
        fill="#FBBC05" />
    <path
        d="M209.75 26.34v39.82c0 16.38-9.66 23.07-21.08 23.07-10.75 0-17.22-7.19-19.66-13.07l8.48-3.53c1.51 3.61 5.21 7.87 11.17 7.87 7.31 0 11.84-4.51 11.84-13v-3.19h-.34c-2.18 2.69-6.38 5.04-11.68 5.04-11.09 0-21.25-9.66-21.25-22.09 0-12.52 10.16-22.26 21.25-22.26 5.29 0 9.49 2.35 11.68 4.96h.34v-3.61h9.25zm-8.56 20.92c0-7.81-5.21-13.52-11.84-13.52-6.72 0-12.35 5.71-12.35 13.52 0 7.73 5.63 13.36 12.35 13.36 6.63 0 11.84-5.63 11.84-13.36z"
        fill="#4285F4" />
    <path d="M225 3v65h-9.5V3h9.5z" fill="#34A853" />
    <path
        d="M262.02 54.48l7.56 5.04c-2.44 3.61-8.32 9.83-18.48 9.83-12.6 0-22.01-9.74-22.01-22.18 0-13.19 9.49-22.18 20.92-22.18 11.51 0 17.14 9.16 18.98 14.11l1.01 2.52-29.65 12.28c2.27 4.45 5.8 6.72 10.75 6.72 4.96 0 8.4-2.44 10.92-6.14zm-23.27-7.98l19.82-8.23c-1.09-2.77-4.37-4.7-8.23-4.7-4.95 0-11.84 4.37-11.59 12.93z"
        fill="#EA4335" />
    <path d="M 32.606 3.892 L 32.606 68.892 L 23.106 68.892 L 23.106 3.892 L 32.606 3.892 Z"
        style="stroke-width: 1; fill: rgb(66, 133, 244);" />
    <path
        d="M 67.645 47.675 C 67.645 60.445 57.655 69.855 45.395 69.855 C 33.135 69.855 23.145 60.445 23.145 47.675 C 23.145 34.815 33.135 25.495 45.395 25.495 C 57.655 25.495 67.645 34.815 67.645 47.675 Z M 57.905 47.675 C 57.905 39.695 52.115 34.235 45.395 34.235 C 38.675 34.235 32.885 39.695 32.885 47.675 C 32.885 55.575 38.675 61.115 45.395 61.115 C 52.115 61.115 57.905 55.565 57.905 47.675 Z"
        style="stroke-width: 1; fill: rgb(66, 133, 244);" />
</svg>
